<?xml version="1.0" encoding="UTF-8"?>
<!DOCTYPE svg PUBLIC "-//W3C//DTD SVG 1.1//EN" "http://www.w3.org/Graphics/SVG/1.1/DTD/svg11.dtd">
<!-- Creator: CorelDRAW X6 -->
<svg xmlns="http://www.w3.org/2000/svg" xml:space="preserve" width="7.86111in" height="7.55555in" version="1.1" style="shape-rendering:geometricPrecision; text-rendering:geometricPrecision; image-rendering:optimizeQuality; fill-rule:evenodd; clip-rule:evenodd"
viewBox="0 0 7861 7556"
 xmlns:xlink="http://www.w3.org/1999/xlink">
 <defs>
  <style type="text/css">
   <![CDATA[
    .str0 {stroke:black;stroke-width:6.94488}
    .fil11 {fill:none;fill-rule:nonzero}
    .fil9 {fill:#282828;fill-rule:nonzero}
    .fil10 {fill:#CD3539;fill-rule:nonzero}
    .fil2 {fill:url(#id0)}
    .fil7 {fill:url(#id1)}
    .fil0 {fill:url(#id2)}
    .fil6 {fill:url(#id3)}
    .fil5 {fill:url(#id4)}
    .fil1 {fill:url(#id5)}
    .fil3 {fill:url(#id6)}
    .fil4 {fill:url(#id7)}
    .fil8 {fill:url(#id8)}
   ]]>
  </style>
  <linearGradient id="id0" gradientUnits="userSpaceOnUse" x1="6680.62" y1="1143.26" x2="4699.16" y2="1699.06">
   <stop offset="0" style="stop-color:#FFCC29"/>
   <stop offset="1" style="stop-color:#F26940"/>
  </linearGradient>
  <linearGradient id="id1" gradientUnits="userSpaceOnUse" xlink:href="#id0" x1="3714.97" y1="1592.39" x2="3387.21" y2="1793.81">
  </linearGradient>
  <linearGradient id="id2" gradientUnits="userSpaceOnUse" xlink:href="#id0" x1="7057.26" y1="1465.24" x2="801.949" y2="5309.24">
  </linearGradient>
  <linearGradient id="id3" gradientUnits="userSpaceOnUse" xlink:href="#id0" x1="4334.29" y1="1341.04" x2="3965.9" y2="1567.42">
  </linearGradient>
  <linearGradient id="id4" gradientUnits="userSpaceOnUse" xlink:href="#id0" x1="5247.86" y1="5323.91" x2="4639.9" y2="5713.49">
  </linearGradient>
  <linearGradient id="id5" gradientUnits="userSpaceOnUse" xlink:href="#id0" x1="3203.81" y1="1327.44" x2="2362.25" y2="2169">
  </linearGradient>
  <linearGradient id="id6" gradientUnits="userSpaceOnUse" xlink:href="#id0" x1="7228.16" y1="2038.89" x2="6643.22" y2="2398.35">
  </linearGradient>
  <linearGradient id="id7" gradientUnits="userSpaceOnUse" xlink:href="#id0" x1="5931.81" y1="3787.59" x2="5345.07" y2="4148.16">
  </linearGradient>
  <radialGradient id="id8" gradientUnits="userSpaceOnUse" cx="1989.69" cy="3977.88" r="852.583" fx="1989.69" fy="3977.88">
   <stop offset="0" style="stop-color:#FEFEFE"/>
   <stop offset="0.580392" style="stop-color:#FEFEFE"/>
   <stop offset="1" style="stop-color:#C7C9CB"/>
  </radialGradient>
 </defs>
 <g id="Layer_x0020_1">
  <metadata id="CorelCorpID_0Corel-Layer"/>
  <path class="fil0" d="M975 3883c0,0 110,22 478,-360 367,-382 860,-625 1727,-566 867,59 1308,713 1448,1499 74,412 -81,750 -81,750 0,0 15,74 147,37 132,-37 132,-110 125,-279 -7,-169 184,-206 492,-81 309,125 470,-184 470,-367 0,-184 81,-426 309,-515 0,0 -184,0 -507,191 -323,191 -661,7 -610,-243 51,-250 617,-228 713,-228 96,0 698,-7 860,-845 0,0 -206,140 -301,176 -96,37 -213,169 -213,169 0,0 -66,-294 287,-698 353,-404 595,-860 757,-1022 0,0 -88,-7 -706,176 -639,169 -661,272 -985,287 -323,15 -845,-96 -1536,316 0,0 -74,-22 382,-573 0,0 -375,184 -779,213 -404,29 -485,-7 -1095,617 0,0 -51,-147 -154,-147 0,0 -140,-301 -110,-375 0,0 -132,213 -191,573 -66,184 -257,323 -257,323 0,0 -154,103 -206,287 -51,184 -96,235 -103,96 -7,-140 81,-331 73,-507 0,0 -140,162 -309,265 -169,103 -316,463 -125,831z"/>
  <path class="fil1" d="M3209 1333c0,0 -206,287 -448,309 -243,22 -404,309 -309,522 0,0 639,-279 757,-831z"/>
  <path class="fil2" d="M6664 1083c0,0 -243,537 -838,537 -595,0 -933,-66 -1022,140 0,0 -88,-125 96,-243 184,-118 272,-162 573,-169 301,-7 845,-22 1191,-265z"/>
  <path class="fil3" d="M7222 2016c0,0 -169,73 -243,191 -74,118 -66,257 -198,257 -132,0 -7,-250 184,-345 110,-147 206,-88 257,-103z"/>
  <path class="fil4" d="M5995 3876c0,0 -279,-59 -426,59 -147,118 -198,29 -198,29 0,0 -88,37 22,96 110,59 382,-88 603,-184z"/>
  <path class="fil5" d="M5253 5331c0,0 -147,66 -287,74 -140,7 -331,81 -287,191 44,110 309,-22 573,-265z"/>
  <path class="fil6" d="M4334 1340c0,0 -368,51 -345,140 22,88 309,15 345,-140z"/>
  <path class="fil7" d="M3393 1693c0,0 169,-110 243,-96 74,15 -66,206 -243,96z"/>
  <path class="fil8" d="M4411 4865c0,942 -763,1705 -1705,1705 -942,0 -1705,-763 -1705,-1705 0,-942 763,-1705 1705,-1705 942,0 1705,763 1705,1705z"/>
  <path class="fil9" d="M1015 4864c2,934 757,1689 1690,1690l0 0c934,-2 1689,-757 1690,-1690l0 0c-2,-934 -757,-1689 -1690,-1690l0 0c-934,2 -1689,757 -1690,1690l0 0zm-29 0c0,-950 770,-1720 1720,-1720l0 0c950,0 1720,770 1720,1720l0 0c0,950 -770,1720 -1720,1720l0 0c-950,0 -1720,-770 -1720,-1720l0 0z"/>
  <path class="fil9" d="M1122 5497c28,1 55,2 82,2l0 0c1037,0 1168,-863 1412,-1433l0 0c203,-469 777,-584 1046,-613 19,13 37,26 55,39 -89,7 -235,26 -394,73l0 0c-257,76 -542,226 -667,518l0 0c-237,556 -381,1460 -1452,1460l0 0c-21,0 -42,0 -63,-1 -6,-15 -13,-30 -19,-45z"/>
  <path class="fil10" d="M1183 5632l7 -7 -23 -26c5,11 11,22 16,32zm-65 -145l74 -71 -40 -47c-18,19 -37,37 -57,56 7,21 15,42 23,62z"/>
  <path class="fil10" d="M1387 5660l41 -49c-40,-27 -79,-64 -115,-96 31,-38 62,-70 88,-112l-44 -40c-39,51 -82,103 -130,156 49,47 102,94 160,141z"/>
  <path class="fil10" d="M1631 5616l33 -57c-46,-22 -88,-43 -129,-73 26,-38 48,-84 67,-126l-49 -30c-27,61 -64,113 -103,172 55,39 116,83 181,115z"/>
  <path class="fil10" d="M1867 5525l22 -61c-50,-14 -98,-29 -142,-46 16,-47 30,-93 40,-137l-55 -22c-14,64 -36,129 -66,189 63,34 129,59 200,77z"/>
  <path class="fil10" d="M2083 5388l7 -66c-49,0 -100,-6 -149,-15 8,-47 12,-93 10,-142l-57 -8c-2,62 -11,128 -25,199 65,15 137,26 213,32z"/>
  <path class="fil10" d="M2260 5208l-4 -64c-51,7 -101,12 -148,14 -4,-49 -10,-97 -17,-142l-60 2c11,65 19,133 16,201 71,5 141,-1 214,-11z"/>
  <path class="fil10" d="M2402 5006l-16 -62c-48,14 -94,27 -143,36 -9,-46 -25,-94 -39,-139l-58 13c21,64 35,127 48,197 66,-11 139,-25 207,-45z"/>
  <path class="fil10" d="M2512 4794l-21 -59 -139 50 -52 -134 -58 19c25,61 52,127 71,192 69,-18 132,-43 200,-68z"/>
  <polygon class="fil10" points="2602,4579 2577,4522 2442,4580 2382,4448 2325,4471 2409,4659 "/>
  <polygon class="fil10" points="2682,4367 2655,4312 2522,4371 2460,4238 2403,4264 2492,4451 "/>
  <path class="fil10" d="M2761 4164l-25 -55c-45,14 -89,34 -135,52 -19,-45 -40,-89 -57,-136l-59 25 85 192 190 -78z"/>
  <path class="fil10" d="M2851 4002l-13 -57c-44,1 -91,6 -140,14 -9,-46 -16,-96 -19,-150l-65 12c3,75 19,147 42,213 65,-22 130,-33 195,-33z"/>
  <path class="fil10" d="M2981 3872l3 -59c-44,-10 -91,-17 -140,-22 4,-47 10,-97 19,-148l-65 -5c-15,72 -19,146 -15,215 70,-2 134,5 198,20z"/>
  <path class="fil10" d="M3146 3770l16 -58c-42,-18 -87,-34 -134,-49 13,-46 29,-93 48,-141l-61 -19c-27,67 -47,137 -60,205 68,15 131,35 192,62z"/>
  <path class="fil10" d="M3332 3695l25 -54 -126 -69c21,-43 43,-88 68,-132l-57 -29c-35,63 -66,127 -91,192 64,26 124,57 181,92z"/>
  <path class="fil10" d="M3532 3645l32 -50 -117 -84 83 -123 -53 -36c-42,60 -80,118 -113,179 59,34 116,74 169,113z"/>
  <path class="fil10" d="M3737 3617l37 -47c-33,-33 -69,-65 -107,-96 3,-4 6,-8 9,-11 -17,-12 -34,-24 -52,-35 -15,19 -29,38 -43,57 55,42 107,86 156,132z"/>
  <path class="fil9" d="M1648 6202c404,-491 1081,-67 1605,-121 363,-37 707,-216 982,-462 18,-37 35,-75 51,-114 -160,167 -351,311 -553,416 -258,134 -568,192 -852,123 -194,-47 -366,-113 -569,-112 -244,1 -522,64 -702,241 12,10 24,20 37,30z"/>
  <path class="fil10" d="M4222 5412l2 54 78 1c7,-18 13,-36 19,-54 -34,0 -67,0 -99,-1z"/>
  <path class="fil10" d="M4053 5566l-4 54 129 15 -9 105c24,-39 45,-79 66,-121 1,-12 1,-24 2,-36 -63,-4 -123,-8 -184,-17z"/>
  <path class="fil10" d="M3871 5702l-9 53 127 29 -26 129 56 11c15,-61 24,-126 33,-187 -62,-11 -121,-20 -180,-36z"/>
  <path class="fil10" d="M3676 5815l-16 51c39,17 81,33 122,45 -12,43 -26,84 -43,125l55 19c22,-60 40,-123 56,-182 -61,-18 -118,-35 -174,-58z"/>
  <path class="fil10" d="M3470 5898l-23 48c36,24 73,42 112,62 -19,39 -38,82 -62,119l52 26c31,-58 60,-114 83,-172 -57,-25 -112,-54 -163,-83z"/>
  <path class="fil10" d="M3258 5942l-31 44c31,28 64,55 99,82 -25,35 -53,70 -83,105l46 34c43,-50 81,-99 113,-154 -52,-31 -101,-72 -144,-111z"/>
  <path class="fil10" d="M3044 5946l-39 35c24,33 50,72 79,102 -32,32 -66,56 -103,84l38 45c52,-35 100,-86 142,-129 -44,-46 -84,-85 -118,-137z"/>
  <path class="fil10" d="M2835 5904l-47 29c18,37 36,74 58,113 -37,22 -78,44 -119,65l28 49c60,-30 115,-60 166,-94 -34,-53 -62,-109 -86,-161z"/>
  <path class="fil10" d="M2590 5837l-49 31 73 110 -107 74 27 46c48,-37 100,-68 154,-98 -29,-55 -61,-112 -98,-163z"/>
  <path class="fil10" d="M2326 5803l-43 40c33,31 64,61 92,97 -33,27 -63,60 -91,91l34 40c40,-45 85,-82 134,-122 -38,-47 -79,-100 -126,-144z"/>
  <path class="fil10" d="M2056 5825l-34 48c40,24 77,46 112,74 -26,34 -48,73 -68,108l42 32c28,-53 63,-98 103,-148 -46,-39 -98,-82 -155,-114z"/>
  <path class="fil10" d="M1793 5912l-20 56c44,10 87,25 128,43 -16,40 -29,81 -37,122l48 19c14,-54 34,-114 62,-168 -56,-31 -115,-52 -180,-72z"/>
  <path class="fil10" d="M1562 6070l-4 56c1,1 3,3 4,4 45,-3 89,-1 131,4 -3,35 -4,68 -2,101 14,10 28,20 42,30l12 1c-4,-57 0,-118 12,-178 -61,-14 -125,-19 -194,-18z"/>
  <line class="fil11 str0" x1="375" y1="7056" x2="0" y2= "7056" />
  <line class="fil11 str0" x1="500" y1="7181" x2="500" y2= "7556" />
  <line class="fil11 str0" x1="375" y1="500" x2="0" y2= "500" />
  <line class="fil11 str0" x1="500" y1="375" x2="500" y2= "0" />
  <line class="fil11 str0" x1="7486" y1="500" x2="7861" y2= "500" />
  <line class="fil11 str0" x1="7361" y1="375" x2="7361" y2= "0" />
  <line class="fil11 str0" x1="7486" y1="7056" x2="7861" y2= "7056" />
  <line class="fil11 str0" x1="7361" y1="7181" x2="7361" y2= "7556" />
 </g>
</svg>
